<svg aria-hidden="true" style="position:absolute;width:0;height:0;overflow:hidden" xmlns="http://www.w3.org/2000/svg">
  <defs>
    <symbol id="left-icon" viewBox="0 0 32 32">
      <path stroke-linejoin="round" stroke-linecap="round" stroke-width="2" d="M23.125 1.75 8.875 16l14.25 14.25"/>
    </symbol>
    <symbol id="link-icon" viewBox="0 0 32 32">
      <path stroke-linejoin="round" stroke-linecap="round" stroke-width="2" d="M20.771 22.361h3.181a6.361 6.361 0 0 0 0-12.722h-3.181M9.639 16h12.722M11.229 9.639H8.048a6.361 6.361 0 0 0 0 12.722h3.181"/>
    </symbol>
    <symbol id="logo" viewBox="0 0 32 32">
      <path d="M15.803 18.807h.982l.365-1.067h1.937l.365 1.067h1.011l-1.74-5.025h-1.179l-1.74 5.025zm1.601-1.881.702-2.105.702 2.105h-1.404zM20.912 18.807h.87v-5.109h-.87v5.109zM24.365 18.891c.365 0 .702-.084.982-.253s.477-.393.589-.646l-.702-.337c-.084.14-.197.253-.337.337s-.309.14-.505.14c-.253 0-.477-.084-.674-.253s-.281-.365-.309-.646h2.639c.028-.056.028-.112.028-.168v-.196c0-.337-.056-.618-.197-.898s-.337-.477-.618-.646c-.253-.168-.589-.253-.982-.253-.337 0-.646.084-.926.253s-.505.393-.646.674c-.168.281-.225.618-.225.982s.084.674.225.982c.168.281.365.533.674.702.281.14.589.225.982.225zm-.084-3.116c.225 0 .421.084.589.225s.253.309.253.533h-1.712c.056-.253.14-.421.309-.561.168-.112.365-.197.561-.197zM26.358 18.807h1.039l.758-1.151.758 1.151h1.039l-1.263-1.853 1.291-1.825h-1.039l-.758 1.151-.786-1.151h-1.039l1.291 1.825-1.291 1.853zM30.849 18.807h.898v-.954h-.898v.954zM5.614 10.386C2.526 10.386 0 12.912 0 16s2.526 5.614 5.614 5.614 5.614-2.526 5.614-5.614-2.526-5.614-5.614-5.614zm-2.302 7.719c-.618 0-1.123-.505-1.123-1.123s.505-1.123 1.123-1.123 1.123.505 1.123 1.123-.505 1.123-1.123 1.123zM8 17.797c-.505.309-1.179.112-1.488-.393L4.94 14.681c-.309-.505-.112-1.179.393-1.488s1.179-.112 1.488.393l1.572 2.723A1.087 1.087 0 0 1 8 17.797z"/>
    </symbol>
    <symbol id="mail-icon" viewBox="0 0 32 32">
      <path stroke-linejoin="round" stroke-linecap="round" stroke-width="2" d="M2.076 5.274a1.595 1.595 0 0 1 1.131-.468h25.587c.441 0 .841.179 1.131.468m-27.849 0a1.595 1.595 0 0 0-.468 1.131v19.191a1.6 1.6 0 0 0 1.599 1.599h25.587a1.6 1.6 0 0 0 1.599-1.599V6.405c0-.442-.179-.841-.468-1.131m-27.849 0 11.663 11.663a3.198 3.198 0 0 0 4.523 0L29.925 5.274"/>
    </symbol>
    <symbol id="phone-call-icon" viewBox="0 0 32 32">
      <path stroke-linejoin="round" stroke-linecap="round" stroke-width="2" d="M19.889 7.444C21.036 7.668 22.174 8.173 23 9s1.332 1.964 1.556 3.111M20.666 2c2.382.265 4.526 1.417 6.222 3.111s2.843 3.84 3.111 6.222m0 11.631v4.215c.006 1.611-1.442 2.957-3.069 2.81C12.889 30 2 19.01 2.011 5.063 1.865 3.445 3.203 2.001 4.813 2h4.224a2.822 2.822 0 0 1 1.864.679c1.473 1.264 2.42 5.555 2.056 7.26-.284 1.332-1.627 2.263-2.54 3.174a22.504 22.504 0 0 0 8.447 8.431c.913-.911 1.846-2.251 3.181-2.535 1.712-.364 6.03.584 7.289 2.067.447.526.684 1.197.667 1.886z"/>
    </symbol>
    <symbol id="pin-icon" viewBox="0 0 32 32">
      <path stroke-linejoin="round" stroke-linecap="round" stroke-width="2" d="M16 17.583V30.25m0-12.667a7.917 7.917 0 1 0 0-15.834 7.917 7.917 0 0 0 0 15.834z"/>
    </symbol>
    <symbol id="right-icon" viewBox="0 0 32 32">
      <path stroke-linejoin="round" stroke-linecap="round" stroke-width="2" d="M8.875 30.25 23.125 16 8.875 1.75"/>
    </symbol>
    <symbol id="socials-github" viewBox="0 0 32 32">
      <path d="M13.599 27.978a1.422 1.422 0 0 0-.507-1.083 1.409 1.409 0 0 0-1.157-.303c-1.844.338-4.172.389-4.792-1.35a8.04 8.04 0 0 0-2.588-3.402 1.727 1.727 0 0 1-.235-.154 1.408 1.408 0 0 0-1.311-.909h-.007a1.409 1.409 0 0 0-1.409 1.402c-.006 1.149 1.142 1.885 1.608 2.134a6.242 6.242 0 0 1 1.301 1.915c.513 1.442 2.004 3.629 6.291 3.347l.003.139.006.377a1.412 1.412 0 0 0 1.409 1.409 1.41 1.41 0 0 0 1.409-1.409l-.007-.449a57.987 57.987 0 0 1-.016-1.665zM28.626 6.67c.045-.176.089-.371.127-.592a8.845 8.845 0 0 0-.575-4.639 1.416 1.416 0 0 0-.867-.818c-.501-.169-2.353-.502-5.894 1.761a19.529 19.529 0 0 0-8.951 0C8.939.152 7.097.455 6.601.614a1.4 1.4 0 0 0-.889.823 8.87 8.87 0 0 0-.568 4.728c.034.18.072.347.11.499a8.824 8.824 0 0 0-1.768 5.394c-.004.434.016.867.06 1.299.47 6.484 4.697 8.43 7.641 9.099a6.399 6.399 0 0 0-.166.564 1.405 1.405 0 0 0 1.032 1.701 1.409 1.409 0 0 0 1.705-1.027c.09-.469.319-.901.659-1.237a1.41 1.41 0 0 0 .416-1.48 1.407 1.407 0 0 0-1.185-.978c-4.866-.556-6.978-2.538-7.296-6.9a9.27 9.27 0 0 1-.047-1.04 5.998 5.998 0 0 1 1.571-4.148 1.416 1.416 0 0 0 .265-1.443 4.812 4.812 0 0 1-.219-.783 5.757 5.757 0 0 1 .111-2.275c1.224.346 2.377.909 3.402 1.662a1.415 1.415 0 0 0 1.166.187 16.594 16.594 0 0 1 8.696.001 1.41 1.41 0 0 0 1.17-.194 10.673 10.673 0 0 1 3.388-1.677c.187.726.229 1.481.123 2.223a4.55 4.55 0 0 1-.238.856 1.404 1.404 0 0 0 .265 1.443c.109.122.217.254.315.378a5.805 5.805 0 0 1 1.27 3.769c.003.366-.015.731-.053 1.095-.31 4.304-2.431 6.288-7.319 6.845a1.408 1.408 0 0 0-.768 2.46c.35.345.581.794.657 1.279.095.377.139.765.13 1.154v3.288c-.014.912-.014 1.596-.014 1.909a1.41 1.41 0 0 0 2.405.996c.264-.264.413-.622.413-.996 0-.305 0-.975.014-1.887v-3.31a6.887 6.887 0 0 0-.218-1.847 5.916 5.916 0 0 0-.164-.586 9.176 9.176 0 0 0 7.671-9.049c.046-.449.068-.9.065-1.351a8.633 8.633 0 0 0-1.779-5.39z"/>
    </symbol>
    <symbol id="socials-instagram" viewBox="0 0 32 32">
      <path d="M16 8.25a7.748 7.748 0 0 0-5.48 13.23A7.75 7.75 0 1 0 16 8.25zm0 12.4a4.646 4.646 0 0 1-4.296-2.871 4.655 4.655 0 0 1 1.008-5.068 4.655 4.655 0 0 1 7.155.705 4.651 4.651 0 0 1-3.866 7.233zM23.75 6.7a1.551 1.551 0 1 0-.002 3.1 1.551 1.551 0 0 0 .003-3.099zm7.657 3.472a11.64 11.64 0 0 0-.744-3.875 8.612 8.612 0 0 0-4.96-4.959 11.64 11.64 0 0 0-3.875-.744c-1.503-.093-2-.093-5.828-.093s-4.325 0-5.828.093a11.64 11.64 0 0 0-3.875.744 8.623 8.623 0 0 0-4.959 4.959 11.64 11.64 0 0 0-.744 3.875C.501 11.691.501 12.187.501 16s0 4.309.093 5.828a11.64 11.64 0 0 0 .744 3.875 8.623 8.623 0 0 0 4.959 4.96c1.24.467 2.55.718 3.875.744 1.55 0 1.999.093 5.828.093s4.325 0 5.828-.093a11.64 11.64 0 0 0 3.875-.744 8.612 8.612 0 0 0 4.96-4.96c.467-1.24.718-2.55.744-3.875 0-1.55.093-2.015.093-5.828s0-4.309-.093-5.828zm-3.1 11.517a9.27 9.27 0 0 1-.543 2.883 5.283 5.283 0 0 1-1.271 1.938 5.059 5.059 0 0 1-1.938 1.256 8.915 8.915 0 0 1-2.898.558c-1.457 0-1.907.078-5.673.078h-5.657a9.316 9.316 0 0 1-2.899-.543 5.283 5.283 0 0 1-1.938-1.271 5.045 5.045 0 0 1-1.255-1.938 8.906 8.906 0 0 1-.558-2.883V10.389c.027-.99.215-1.969.558-2.899A5.123 5.123 0 0 1 5.49 5.568a5.059 5.059 0 0 1 1.938-1.256 8.916 8.916 0 0 1 2.899-.558c1.457-.155 1.906-.155 5.673-.155h5.673c.995.025 1.98.214 2.914.558a5.123 5.123 0 0 1 1.922 1.255c.562.54.992 1.203 1.256 1.938a8.93 8.93 0 0 1 .636 2.96c0 1.55.078 1.938.078 5.689s-.078 4.2-.078 5.689h-.093z"/>
    </symbol>
    <symbol id="socials-linkedin" viewBox="0 0 32 32">
      <path d="M23.519 11.279a7.815 7.815 0 0 0-3.705.931 1.448 1.448 0 0 0-1.35-.931h-5.777a1.436 1.436 0 0 0-1.022.423 1.459 1.459 0 0 0-.423 1.022v17.332c0 .19.037.378.11.553s.179.334.313.469.293.241.469.313c.175.073.363.11.553.11h5.777a1.436 1.436 0 0 0 1.022-.423 1.44 1.44 0 0 0 .423-1.022v-7.944a1.442 1.442 0 0 1 1.444-1.444 1.443 1.443 0 0 1 1.444 1.444v7.944c0 .19.037.378.11.553s.179.334.313.469.293.241.469.313c.175.073.363.11.553.11h5.777a1.436 1.436 0 0 0 1.022-.423 1.44 1.44 0 0 0 .423-1.022V19.223a7.951 7.951 0 0 0-7.944-7.944zm5.055 17.332h-2.889v-6.5a4.337 4.337 0 0 0-4.333-4.333 4.337 4.337 0 0 0-4.333 4.333v6.5H14.13V14.167h2.889v1.016a1.444 1.444 0 0 0 2.572.902 5.033 5.033 0 0 1 5.61-1.637 5.03 5.03 0 0 1 3.371 4.774v9.388zM8.353 11.279H2.576a1.436 1.436 0 0 0-1.022.423 1.459 1.459 0 0 0-.423 1.022v17.332c0 .19.037.378.11.553s.179.334.313.469.293.241.469.313c.175.073.363.11.553.11h5.777a1.436 1.436 0 0 0 1.022-.423 1.44 1.44 0 0 0 .423-1.022V12.724a1.436 1.436 0 0 0-.423-1.022 1.459 1.459 0 0 0-1.022-.423zM6.909 28.611H4.02V14.167h2.889v14.444zM5.485.508a4.66 4.66 0 0 0-3.466 1.248A4.666 4.666 0 0 0 .898 6.973a4.674 4.674 0 0 0 2.648 2.561 4.663 4.663 0 0 0 1.856.3h.041a4.665 4.665 0 0 0 4.559-2.797 4.685 4.685 0 0 0 .017-3.693A4.673 4.673 0 0 0 5.485.507zm-.04 6.438h-.041a1.763 1.763 0 0 1-1.829-1.044 1.756 1.756 0 0 1-.149-.731c0-1.078.808-1.774 2.059-1.774a1.777 1.777 0 0 1 1.413.428 1.777 1.777 0 0 1 .605 1.346c0 1.078-.808 1.774-2.058 1.774z"/>
    </symbol>
    <symbol id="socials-twitter" viewBox="0 0 32 32">
      <path d="M31.403 4.722a1.404 1.404 0 0 0-.707-1.217 1.398 1.398 0 0 0-1.408.014c-.82.488-1.703.862-2.623 1.111a7.216 7.216 0 0 0-4.726-1.74 7.329 7.329 0 0 0-7.317 7.093 15.457 15.457 0 0 1-9.544-5.496 1.415 1.415 0 0 0-1.201-.511 1.4 1.4 0 0 0-1.099.7 7.385 7.385 0 0 0-.34 6.679l-.003.003a1.459 1.459 0 0 0-.693 1.245c-.003.206.01.412.037.615a7.264 7.264 0 0 0 2.197 4.64 1.41 1.41 0 0 0-.093 1.078 7.287 7.287 0 0 0 3.309 4.092 10.462 10.462 0 0 1-5.028.628 1.396 1.396 0 0 0-1.491.912 1.4 1.4 0 0 0 .56 1.656 18.12 18.12 0 0 0 9.818 2.887A17.911 17.911 0 0 0 28.51 15.996a17.96 17.96 0 0 0 .75-5.107l-.001-.28a8.076 8.076 0 0 0 2.146-5.885zm-4.632 4.499a1.398 1.398 0 0 0-.327.983c.014.231.012.464.012.683a15.168 15.168 0 0 1-.636 4.316 14.96 14.96 0 0 1-14.772 11.105c-1.203 0-2.403-.141-3.573-.421a13.265 13.265 0 0 0 4.121-2.19 1.4 1.4 0 0 0-.843-2.502 4.492 4.492 0 0 1-3.101-1.309c.209-.04.417-.089.624-.148a1.402 1.402 0 0 0-.111-2.723 4.47 4.47 0 0 1-3.151-2.417 7.5 7.5 0 0 0 .763.064 1.423 1.423 0 0 0 1.377-.976 1.398 1.398 0 0 0-.561-1.592A4.47 4.47 0 0 1 4.598 8.35c0-.093.003-.186.008-.278a18.226 18.226 0 0 0 11.498 4.874 1.435 1.435 0 0 0 1.145-.502 1.395 1.395 0 0 0 .288-1.216 4.439 4.439 0 0 1-.122-1.02 4.523 4.523 0 0 1 6.311-4.148 4.467 4.467 0 0 1 1.492 1.059 1.39 1.39 0 0 0 1.29.417 13.05 13.05 0 0 0 1.697-.451 9.326 9.326 0 0 1-1.438 2.135z"/>
    </symbol>
    <symbol id="specialized-app" viewBox="0 0 32 32">
      <path d="M17.873.933c-1.121-.572-2.64-.581-3.771-.01-3.95 2.569-8.127 5.017-11.704 7.473-.532.43-.91 1.055-.904 1.79.006.732.392 1.349.921 1.772 3.56 2.145 7.737 4.594 11.6 7.406 1.121.572 2.64.581 3.771.01 4.061-2.822 5.732-3.638 11.704-7.473.532-.43.91-1.055.904-1.79-.007-.732-.392-1.349-.921-1.772-3.449-2.399-7.626-4.847-11.6-7.406zm-2.62 2.166c.4-.202 1.058-.2 1.461.005 3.463 2.02 6.804 4.469 11.038 7.023-3.399 2.343-6.74 4.792-11.116 7.07-.4.202-1.058.2-1.461-.005-3.994-2.273-7.528-4.722-11.038-7.023 3.51-2.596 6.016-4.229 11.116-7.07z"/>
      <path d="M31.31 16.177a1.209 1.209 0 0 1-.399 1.687l-10.203 6.224c-1.366.626-3.047 1.442-4.707 1.442s-3.341-.816-4.819-1.441L1.091 17.935c-.587-.358-.766-1.113-.4-1.687s1.139-.748 1.726-.39l10.091 6.154c.909.554 2.2 1.07 3.492 1.07s2.471-.516 3.38-1.07l10.203-6.224a1.27 1.27 0 0 1 1.726.39z"/>
      <path d="M31.31 22.307a1.209 1.209 0 0 1-.399 1.687l-8.836 5.392c-2.733 1.307-3.977 2.114-6.13 2.115s-4.956-1.624-6.131-2.114L1.09 24.065c-.587-.358-.766-1.113-.399-1.687s1.139-.748 1.726-.39l8.724 5.322c1.291.788 3.019 1.486 4.803 1.486s3.512-.699 4.803-1.487l8.836-5.392a1.27 1.27 0 0 1 1.727.39z"/>
    </symbol>
    <symbol id="specialized-crown" viewBox="0 0 32 32">
      <path stroke-linejoin="round" stroke-linecap="round" stroke-width="1.92" d="M1.429 28.75h29.143M1.429 3.25v20.036h29.143V3.25l-7.286 7.286L16 3.25l-7.286 7.286L1.428 3.25z"/>
    </symbol>
    <symbol id="specialized-globe" viewBox="0 0 32 32">
      <path stroke-width="1.92" d="M30.5 16c0 8.008-6.492 14.5-14.5 14.5M30.5 16c0-8.008-6.492-14.5-14.5-14.5M30.5 16h-29M16 30.5C7.992 30.5 1.5 24.008 1.5 16M16 30.5s6.444-4.833 6.444-14.5S16 1.5 16 1.5m0 29S9.556 25.667 9.556 16 16 1.5 16 1.5M1.5 16C1.5 7.992 7.992 1.5 16 1.5"/>
    </symbol>
    <symbol id="theme-switcher-moon" viewBox="0 0 32 32">
      <path stroke-linejoin="round" stroke-width="1.92" d="M2.542 23.917c12.591 2.561 21.665-13.05 12.667-22.167 7.918.208 14.25 6.51 14.25 14.25 0 7.872-6.145 14.25-14.25 14.25-5.112 0-10.039-2.483-12.667-6.333z"/>
    </symbol>
    <symbol id="theme-switcher-sun" viewBox="0 0 32 32">
      <path d="M1.462 14.788a1.212 1.212 0 1 0 0 2.424v-2.423zm3.23 2.424a1.212 1.212 0 1 0 0-2.424v2.423zm-.856 9.239a1.211 1.211 0 0 0 1.713 1.713l-1.713-1.713zm4.944-1.517a1.211 1.211 0 0 0-1.713-1.713l1.713 1.713zm8.432 2.374a1.212 1.212 0 1 0-2.424 0h2.423zm-2.424 3.23a1.212 1.212 0 1 0 2.424 0h-2.423zm10.146-7.318a1.211 1.211 0 0 0-1.713 1.713l1.713-1.713zm1.517 4.944a1.211 1.211 0 0 0 1.713-1.713l-1.713 1.713zM5.549 3.836a1.211 1.211 0 0 0-1.713 1.713l1.713-1.713zM7.066 8.78a1.211 1.211 0 0 0 1.713-1.713L7.066 8.78zm20.242 6.008a1.212 1.212 0 1 0 0 2.424v-2.423zm3.23 2.424a1.212 1.212 0 1 0 0-2.424v2.423zM23.22 7.066a1.211 1.211 0 0 0 1.713 1.713L23.22 7.066zm4.944-1.517a1.211 1.211 0 0 0-1.713-1.713l1.713 1.713zM17.212 1.462a1.212 1.212 0 1 0-2.424 0h2.423zm-2.424 3.23a1.212 1.212 0 1 0 2.424 0h-2.423zM19.635 16A3.635 3.635 0 0 1 16 19.635v2.423A6.058 6.058 0 0 0 22.058 16h-2.423zM16 19.635A3.635 3.635 0 0 1 12.365 16H9.942A6.058 6.058 0 0 0 16 22.058v-2.423zM12.365 16A3.635 3.635 0 0 1 16 12.365V9.942A6.058 6.058 0 0 0 9.942 16h2.423zM16 12.365A3.635 3.635 0 0 1 19.635 16h2.423A6.058 6.058 0 0 0 16 9.942v2.423zM1.462 17.212h3.231v-2.423H1.462v2.423zm4.087 10.952 3.231-3.231-1.713-1.713-3.231 3.231 1.713 1.713zm9.239-.856v3.231h2.423v-3.231h-2.423zm8.432-2.374 3.231 3.231 1.713-1.713-3.231-3.231-1.713 1.713zM3.836 5.549 7.067 8.78 8.78 7.067 5.549 3.836 3.836 5.549zm23.472 11.663h3.231v-2.423h-3.231v2.423zM24.934 8.78l3.231-3.231-1.713-1.713-3.231 3.231 1.713 1.713zM14.788 1.462v3.231h2.423V1.462h-2.423z"/>
    </symbol>
  </defs>
</svg>
